<svg id="Layer_1" data-name="Layer 1" xmlns="http://www.w3.org/2000/svg" viewBox="0 0 1280 400"><defs><style>.cls-1{fill:#0093dd;}</style></defs><title>kiali_logo_1color_0093dd_1024px</title><path class="cls-1" d="M635.81,115.9c0-18.58,11.23-28.26,28.26-28.26s28.26,9.68,28.26,28.26V244.42L755,174.74c5.81-6.19,13.16-10.84,21.68-10.84,12.77,0,26.71,11.23,26.71,25.55,0,10.07-3.48,13.16-8.52,18.58l-41.8,43.75,58.84,79a30.88,30.88,0,0,1,5.8,18.19c0,14.32-11.61,27.48-26.71,27.48-13.93,0-21.29-7-25.55-13.16l-53.42-75.48L692.33,305.2v43c0,18.58-11.23,28.25-28.26,28.25s-28.26-9.67-28.26-28.25Z"/><path class="cls-1" d="M859.55,86.1a29.42,29.42,0,1,1-29.42,29.41A29.4,29.4,0,0,1,859.55,86.1ZM831.3,192.16c0-15.1,6.19-28.26,28.25-28.26s28.26,13.16,28.26,28.26v156c0,15.09-6.19,28.25-28.26,28.25s-28.25-13.16-28.25-28.25Z"/><path class="cls-1" d="M1100.33,316.81c0,23.61,5.81,29,5.81,37.94,0,12.77-12,21.67-25.55,21.67-24.39,0-32.52-15.48-33.29-32.9-22.06,24.39-47.61,32.9-77.42,32.9-32.13,0-63.87-22.06-63.87-57.67,0-46.84,35.61-60,79-65l34.45-3.87c13.55-1.55,24.39-4.64,24.39-20.9s-16.65-23.23-35.62-23.23c-41.81,0-43,31-65.42,31-14.32,0-24-10.07-24-21.68,0-22.45,31.74-51.1,89.81-51.1,54.19,0,91.74,17.42,91.74,58.07Zm-56.51-40.65c-6.2,5.81-17.81,7.75-24.39,8.91l-20.52,3.09C975.3,291.65,962.52,299,962.52,316c0,12.77,12,23.22,31.36,23.22,31,0,49.94-20.13,49.94-41Z"/><path class="cls-1" d="M1129,115.9c0-18.58,11.23-28.26,28.26-28.26s28.26,9.68,28.26,28.26V348.17c0,18.58-11.22,28.25-28.26,28.25S1129,366.75,1129,348.17Z"/><path class="cls-1" d="M1241.62,86.1a29.42,29.42,0,1,1-29.42,29.41A29.4,29.4,0,0,1,1241.62,86.1Zm-28.26,106.06c0-15.1,6.2-28.26,28.26-28.26s28.26,13.16,28.26,28.26v156c0,15.09-6.19,28.25-28.26,28.25s-28.26-13.16-28.26-28.25Z"/><path class="cls-1" d="M349.87,8.3c-107.27,0-194.23,87-194.23,194.23s87,194.24,194.23,194.24,194.23-87,194.23-194.24S457.14,8.3,349.87,8.3Zm0,358.9A164.67,164.67,0,1,1,514.54,202.53,164.66,164.66,0,0,1,349.87,367.2Z"/><path class="cls-1" d="M144.09,202.53A204.76,204.76,0,0,1,188,75.58a131.6,131.6,0,0,0-43.88-7.52C70.64,68.06,11,128.27,11,202.53S70.64,337,144.15,337a131.69,131.69,0,0,0,43.77-7.47A204.27,204.27,0,0,1,144.09,202.53Z"/><path class="cls-1" d="M292.4,60.65c-56,22.78-95.65,77.78-95.65,141.88s39.62,119.11,95.65,141.89a201,201,0,0,0,0-283.77Z"/></svg>