<?xml version="1.0" encoding="utf-8"?>
<!-- Generator: Adobe Illustrator 16.0.0, SVG Export Plug-In . SVG Version: 6.00 Build 0)  -->
<!DOCTYPE svg PUBLIC "-//W3C//DTD SVG 1.1//EN" "http://www.w3.org/Graphics/SVG/1.1/DTD/svg11.dtd">
<svg version="1.1" id="图层_1" xmlns="http://www.w3.org/2000/svg" xmlns:xlink="http://www.w3.org/1999/xlink" x="0px" y="0px"
	 width="200px" height="200px" viewBox="0 -5 200 200" enable-background="new 0 -5 200 200" xml:space="preserve">
<rect fill="#0756A0" width="200" height="199.996"/>
<g>
	<path fill="#005BAC" d="M256.793,90.828c-0.689-2.756-4.294-4.38-9.103-4.594l0.446,1.709c1.712,0.394,2.875,1.165,3.153,2.274
		c0.635,2.539-3.647,5.743-9.536,7.217c-0.381,0.095-0.76,0.18-1.135,0.256c0.478-4.112,1.643-6.933,3.369-6.933
		c0.51,0,0.923,0.229,1.256,0.648l1.369-0.373c-1.304-2.826-3.135-4.568-5.166-4.568c-3.241,0-6.111,4.969-6.895,11.634
		c-2.521-0.246-4.308-1.112-4.659-2.515c-0.493-1.969,2.01-4.327,5.904-5.974c-0.104-0.392-0.247-0.937-0.345-1.305
		c-6.658,2.508-10.929,6.737-10.021,10.368c0.687,2.745,4.211,4.412,8.952,4.667c0.387,7.394,3.395,13.514,7.097,13.514
		c3.197,0,6.129-4.61,6.928-11.53l-2.325,0.567c-0.523,3.564-1.521,6.043-2.723,6.01c-1.478-0.04-2.788-3.986-2.962-8.929
		c0.864-0.143,1.742-0.322,2.628-0.544C251.688,100.262,257.856,95.081,256.793,90.828z"/>
	<g>
		<path fill="#0756A0" d="M269.603,93.546h2.218v2.583h5.443v8.188h-2.16v-1.007h-3.284v4.699h-2.218v-4.699h-3.284v1.051h-2.16
			v-8.231h5.444V93.546z M266.319,101.295h3.284v-3.152h-3.284V101.295z M275.104,98.143h-3.284v3.152h3.284V98.143z"/>
		<path fill="#0756A0" d="M279.03,107.877V94.159h13.281v13.704h-2.087v-0.511h-9.106v0.525H279.03z M290.224,95.954h-9.106v9.603
			h9.106V95.954z M289.407,101.237h-1.087c0.404,0.351,0.81,0.725,1.219,1.124l-0.773,0.701h0.992v1.707h-8.246v-1.707h2.977v-1.825
			h-2.598v-1.708h2.598v-1.036h-2.831v-1.708h7.954v1.708h-3.167v1.036h2.963V101.237z M286.853,101.967l0.847-0.73h-1.255v1.825
			h1.43C287.49,102.624,287.149,102.259,286.853,101.967z"/>
		<path fill="#0756A0" d="M306.131,95.458v7.932c0.472,0.2,1.046,0.392,1.722,0.577c-0.263,1.712-0.63,2.744-1.102,3.094
			c-0.472,0.35-1.097,0.525-1.875,0.525h-3.503c-1.586,0-2.379-0.72-2.379-2.16v-1.459h-2.86v1.138h-2.102v-9.647h4.962v-1.795
			h2.116v1.795H306.131z M296.134,97.296v1.489h2.86v-1.489H296.134z M296.134,102.127h2.86v-1.503h-2.86V102.127z M304.03,97.296
			h-2.919v1.489h2.919V97.296z M304.03,102.127v-1.503h-2.919v1.503H304.03z M302.001,105.776h2.189c0.36,0,0.645-0.062,0.854-0.186
			c0.209-0.124,0.344-0.294,0.405-0.511c0.061-0.217,0.135-0.587,0.223-1.113h-4.561v1.036
			C301.111,105.518,301.408,105.776,302.001,105.776z"/>
		<path fill="#0756A0" d="M310.831,93.633l1.926,0.511c-0.365,1.167-0.739,2.26-1.124,3.276v10.559h-1.854v-6.443
			c-0.345,0.632-0.696,1.214-1.051,1.744c-0.107-0.778-0.263-1.693-0.467-2.744C309.158,98.863,310.014,96.562,310.831,93.633z
			 M322.769,96.932h-10.201v-1.664h3.911c-0.175-0.423-0.375-0.871-0.598-1.343l2.174-0.394c0.238,0.448,0.506,1.026,0.803,1.737
			h3.911V96.932z M313.137,107.979v-5.604h8.786v5.604h-2v-0.759h-4.787v0.759H313.137z M321.923,99.296h-8.757v-1.562h8.757V99.296
			z M321.923,101.602h-8.757v-1.562h8.757V101.602z M319.923,104.098h-4.787v1.401h4.787V104.098z"/>
		<path fill="#0756A0" d="M325.659,108.038v-4.437c-0.467,0.214-0.954,0.423-1.459,0.628c-0.243-0.535-0.555-1.109-0.934-1.722
			c2.598-0.778,4.777-2.039,6.538-3.78h1.883l-0.189,0.263c1.722,1.664,3.818,2.802,6.29,3.415
			c-0.341,0.604-0.647,1.211-0.919,1.825c-0.525-0.185-1.027-0.384-1.503-0.599v4.408h-1.897v-0.759h-5.911v0.759H325.659z
			 M328.986,93.838l2.408-0.292c0.136,0.34,0.312,0.788,0.525,1.343h5.239v3.196h-2.116v-1.518h-9.078v1.518h-2.116v-3.196h5.575
			C329.259,94.48,329.113,94.13,328.986,93.838z M328.592,96.742l1.138,1.328c-1.333,0.953-2.929,1.877-4.787,2.772
			c-0.233-0.428-0.569-0.982-1.007-1.664C325.562,98.527,327.113,97.715,328.592,96.742z M333.467,103.966h-5.911v1.678h5.911
			V103.966z M330.504,100.317c-0.681,0.71-1.522,1.382-2.525,2.014h4.962C331.998,101.729,331.185,101.057,330.504,100.317z
			 M332.357,96.844c1.537,0.72,3.118,1.518,4.743,2.394l-1.036,1.649c-1.362-0.905-2.909-1.819-4.641-2.744L332.357,96.844z"/>
		<path fill="#0756A0" d="M346.003,107.877v-4.729h3.036c-1.615-0.355-2.817-0.944-3.605-1.766
			c-0.671,0.808-1.973,1.396-3.904,1.766h3.335v4.758h-1.693v-0.555h-2.32v0.555h-1.693v-4.452c-0.209,0.02-0.423,0.034-0.642,0.044
			c-0.059-0.467-0.161-0.963-0.307-1.488c2.997-0.078,4.809-0.497,5.437-1.255h-5.247v-1.489h5.947
			c0.044-0.224,0.076-0.467,0.095-0.729h2.043c-0.024,0.258-0.058,0.501-0.102,0.729h1.97l-0.233-0.569l1.868-0.234l0.335,0.803
			h2.204v1.489h-5.743c1.036,0.803,3.009,1.226,5.918,1.27c-0.166,0.545-0.292,1.046-0.379,1.503
			c-0.205-0.005-0.404-0.015-0.599-0.029v4.408h-1.693v-0.555h-2.335v0.525H346.003z M339.158,94.203h5.721v4.116h-5.721V94.203z
			 M343.171,104.638h-2.32v1.226h2.32V104.638z M343.099,96.83v-1.138h-2.16v1.138H343.099z M346.018,94.203h5.706v4.116h-5.706
			V94.203z M350.031,104.638h-2.335v1.226h2.335V104.638z M349.943,96.83v-1.138h-2.131v1.138H349.943z"/>
		<path fill="#0756A0" d="M353.446,98.917h14.01v2.014h-6.779c-0.72,1.046-1.856,2.422-3.408,4.13
			c2.048-0.015,4.021-0.073,5.918-0.175l-1.978-2.438l1.751-1.065c1.917,2.16,3.41,3.96,4.48,5.4l-1.912,1.226
			c-0.214-0.321-0.489-0.71-0.825-1.167c-5.73,0.189-9.021,0.394-9.873,0.613l-0.934-1.941c1.513-1.241,2.855-2.768,4.028-4.583
			h-4.48V98.917z M354.789,94.393h11.325v2.014h-11.325V94.393z"/>
		<path fill="#0756A0" d="M368.274,101.441h5.94v-5.356h-5.298v-1.927h12.901v1.927h-5.385v5.356h6.027v1.926h-6.027v4.539h-2.218
			v-4.539h-5.94V101.441z M369.12,97.399l1.533-1.037c0.934,1.09,1.902,2.296,2.904,3.62l-1.766,1.167
			C370.809,99.661,369.918,98.411,369.12,97.399z M381.847,97.545c-1.032,1.235-2.121,2.452-3.27,3.648l-1.488-1.211
			c1.128-1.167,2.14-2.369,3.036-3.605L381.847,97.545z"/>
		<path fill="#0756A0" d="M393.565,95.312c1.499,1.459,2.885,2.895,4.159,4.306l-1.62,1.372l-1.139-1.342
			c-4.184,0.068-7.817,0.243-10.902,0.525l-0.773-1.722c1.917-1.187,3.814-2.87,5.692-5.05l1.912,1.036
			c-1.381,1.304-2.841,2.579-4.378,3.824l7.02-0.248l-1.488-1.635L393.565,95.312z M384.663,107.95v-6.845H395.9v6.845h-1.985
			v-0.861h-7.268v0.861H384.663z M393.916,102.916h-7.268v2.364h7.268V102.916z"/>
	</g>
</g>
<g>
	<path fill="#FFFFFF" d="M49.068,86.591c-0.689-2.756-4.294-4.38-9.103-4.594l0.446,1.709c1.712,0.394,2.875,1.165,3.153,2.274
		c0.635,2.539-3.647,5.743-9.536,7.217c-0.381,0.095-0.76,0.18-1.136,0.256c0.478-4.112,1.643-6.933,3.369-6.933
		c0.511,0,0.923,0.229,1.256,0.648l1.369-0.373c-1.304-2.826-3.135-4.568-5.166-4.568c-3.24,0-6.111,4.969-6.895,11.634
		c-2.521-0.246-4.308-1.112-4.658-2.515c-0.493-1.969,2.01-4.327,5.904-5.974c-0.104-0.392-0.247-0.937-0.345-1.305
		c-6.658,2.508-10.93,6.737-10.021,10.368c0.687,2.745,4.212,4.412,8.952,4.667c0.387,7.394,3.396,13.514,7.098,13.514
		c3.196,0,6.129-4.61,6.928-11.53l-2.324,0.567c-0.523,3.564-1.521,6.043-2.724,6.01c-1.478-0.04-2.787-3.986-2.962-8.929
		c0.864-0.143,1.742-0.322,2.629-0.544C43.963,96.025,50.131,90.844,49.068,86.591z"/>
	<g>
		<path fill="#FFFFFF" d="M61.877,89.309h2.219v2.583h5.443v8.188h-2.16v-1.007h-3.283v4.699h-2.219v-4.699h-3.283v1.051h-2.16
			v-8.231h5.443V89.309z M58.594,97.059h3.283v-3.152h-3.283V97.059z M67.379,93.906h-3.283v3.152h3.283V93.906z"/>
		<path fill="#FFFFFF" d="M71.305,103.641V89.922h13.281v13.704h-2.088v-0.511h-9.106v0.525H71.305z M82.499,91.717h-9.106v9.603
			h9.106V91.717z M81.682,97h-1.088c0.404,0.351,0.811,0.725,1.219,1.124l-0.773,0.701h0.992v1.707h-8.245v-1.707h2.977V97h-2.598
			v-1.708h2.598v-1.036h-2.831v-1.708h7.954v1.708h-3.167v1.036h2.963V97z M79.127,97.73L79.974,97h-1.255v1.825h1.43
			C79.765,98.387,79.424,98.022,79.127,97.73z"/>
		<path fill="#FFFFFF" d="M98.407,91.221v7.932c0.472,0.2,1.046,0.392,1.722,0.577c-0.263,1.712-0.63,2.744-1.102,3.094
			s-1.097,0.525-1.875,0.525h-3.503c-1.586,0-2.379-0.72-2.379-2.16v-1.459h-2.86v1.138h-2.102v-9.647h4.962v-1.795h2.116v1.795
			H98.407z M88.41,93.06v1.489h2.86V93.06H88.41z M88.41,97.891h2.86v-1.503h-2.86V97.891z M96.305,93.06h-2.919v1.489h2.919V93.06z
			 M96.305,97.891v-1.503h-2.919v1.503H96.305z M94.277,101.539h2.188c0.36,0,0.645-0.062,0.854-0.186
			c0.21-0.124,0.345-0.294,0.405-0.511c0.061-0.217,0.135-0.587,0.223-1.113h-4.561v1.036
			C93.386,101.281,93.683,101.539,94.277,101.539z"/>
		<path fill="#FFFFFF" d="M103.106,89.396l1.926,0.511c-0.364,1.167-0.739,2.26-1.123,3.276v10.559h-1.854v-6.443
			c-0.345,0.632-0.695,1.214-1.051,1.744c-0.106-0.778-0.263-1.693-0.467-2.744C101.433,94.626,102.289,92.325,103.106,89.396z
			 M115.044,92.695h-10.201v-1.664h3.911c-0.175-0.423-0.374-0.871-0.598-1.343l2.174-0.394c0.238,0.448,0.506,1.026,0.803,1.737
			h3.911V92.695z M105.412,103.743v-5.604h8.786v5.604h-2v-0.759h-4.787v0.759H105.412z M114.198,95.059h-8.757v-1.562h8.757V95.059
			z M114.198,97.365h-8.757v-1.562h8.757V97.365z M112.198,99.861h-4.787v1.401h4.787V99.861z"/>
		<path fill="#FFFFFF" d="M117.934,103.801v-4.437c-0.467,0.214-0.953,0.423-1.459,0.628c-0.243-0.535-0.555-1.109-0.935-1.722
			c2.598-0.778,4.777-2.039,6.538-3.78h1.883l-0.189,0.263c1.722,1.664,3.818,2.802,6.29,3.415
			c-0.341,0.604-0.646,1.211-0.919,1.825c-0.525-0.185-1.027-0.384-1.504-0.599v4.408h-1.896v-0.759h-5.911v0.759H117.934z
			 M121.262,89.601l2.407-0.292c0.137,0.34,0.312,0.788,0.525,1.343h5.239v3.196h-2.115V92.33h-9.078v1.518h-2.116v-3.196h5.575
			C121.534,90.243,121.388,89.893,121.262,89.601z M120.867,92.505l1.139,1.328c-1.333,0.953-2.929,1.877-4.787,2.772
			c-0.233-0.428-0.569-0.982-1.007-1.664C117.837,94.291,119.389,93.478,120.867,92.505z M125.742,99.729h-5.911v1.678h5.911V99.729
			z M122.779,96.081c-0.682,0.71-1.522,1.382-2.525,2.014h4.963C124.272,97.492,123.46,96.82,122.779,96.081z M124.633,92.607
			c1.537,0.72,3.118,1.518,4.743,2.394l-1.036,1.649c-1.362-0.905-2.909-1.819-4.642-2.744L124.633,92.607z"/>
		<path fill="#FFFFFF" d="M138.278,103.641v-4.729h3.035c-1.615-0.355-2.816-0.944-3.604-1.766
			c-0.672,0.808-1.973,1.396-3.904,1.766h3.335v4.758h-1.693v-0.555h-2.32v0.555h-1.692v-4.452c-0.209,0.02-0.424,0.034-0.643,0.044
			c-0.059-0.467-0.16-0.963-0.307-1.488c2.997-0.078,4.81-0.497,5.437-1.255h-5.246V95.03h5.946
			c0.044-0.224,0.076-0.467,0.096-0.729h2.043c-0.024,0.258-0.059,0.501-0.103,0.729h1.971l-0.233-0.569l1.868-0.234l0.335,0.803
			h2.204v1.489h-5.743c1.036,0.803,3.009,1.226,5.918,1.27c-0.165,0.545-0.292,1.046-0.379,1.503
			c-0.205-0.005-0.404-0.015-0.599-0.029v4.408h-1.693v-0.555h-2.335v0.525H138.278z M131.434,89.966h5.721v4.116h-5.721V89.966z
			 M135.446,100.401h-2.32v1.226h2.32V100.401z M135.374,92.593v-1.138h-2.16v1.138H135.374z M138.293,89.966h5.706v4.116h-5.706
			V89.966z M142.306,100.401h-2.335v1.226h2.335V100.401z M142.219,92.593v-1.138h-2.131v1.138H142.219z"/>
		<path fill="#FFFFFF" d="M145.721,94.68h14.011v2.014h-6.779c-0.72,1.046-1.855,2.422-3.407,4.13
			c2.048-0.015,4.021-0.073,5.918-0.175l-1.978-2.438l1.751-1.065c1.917,2.16,3.41,3.96,4.48,5.4l-1.912,1.226
			c-0.214-0.321-0.488-0.71-0.824-1.167c-5.73,0.189-9.021,0.394-9.873,0.613l-0.934-1.941c1.513-1.241,2.855-2.768,4.027-4.583
			h-4.48V94.68z M147.063,90.156h11.325v2.014h-11.325V90.156z"/>
		<path fill="#FFFFFF" d="M160.549,97.205h5.94v-5.356h-5.298v-1.927h12.901v1.927h-5.386v5.356h6.027v1.926h-6.027v4.539h-2.218
			v-4.539h-5.94V97.205z M161.396,93.162l1.532-1.037c0.935,1.09,1.902,2.296,2.904,3.62l-1.766,1.167
			C163.084,95.424,162.193,94.174,161.396,93.162z M174.122,93.308c-1.032,1.235-2.121,2.452-3.27,3.648l-1.488-1.211
			c1.128-1.167,2.14-2.369,3.035-3.605L174.122,93.308z"/>
		<path fill="#FFFFFF" d="M185.841,91.075c1.498,1.459,2.885,2.895,4.159,4.306l-1.62,1.372l-1.139-1.342
			c-4.184,0.068-7.817,0.243-10.901,0.525l-0.773-1.722c1.917-1.187,3.813-2.87,5.691-5.05l1.912,1.036
			c-1.382,1.304-2.841,2.579-4.378,3.824l7.02-0.248l-1.488-1.635L185.841,91.075z M176.938,103.713v-6.845h11.237v6.845h-1.985
			v-0.861h-7.268v0.861H176.938z M186.19,98.679h-7.268v2.364h7.268V98.679z"/>
	</g>
</g>
</svg>
